<svg width="1280" height="820" viewBox="0 0 1280 820" fill="none" xmlns="http://www.w3.org/2000/svg">
  <rect width="1280" height="820" fill="#242422"/>

  <rect width="206" height="820" fill="#000000"/>
  <text x="22" y="88" fill="#F0F0F0" font-family="Arial, sans-serif" font-size="30" font-weight="900">gumroad</text>
  <line x1="0" y1="134" x2="206" y2="134" stroke="#555555"/>
  <rect x="0" y="134" width="206" height="58" fill="#000000"/>
  <text x="58" y="170" fill="#FF7EE7" font-family="Arial, sans-serif" font-size="18" font-weight="800">Home</text>
  <text x="25" y="170" fill="#FF7EE7" font-family="Arial, sans-serif" font-size="23" font-weight="900">⌂</text>
  <line x1="0" y1="192" x2="206" y2="192" stroke="#555555"/>
  <text x="58" y="228" fill="#EDEDED" font-family="Arial, sans-serif" font-size="18">Products</text>
  <text x="25" y="228" fill="#EDEDED" font-family="Arial, sans-serif" font-size="20">▣</text>
  <line x1="0" y1="250" x2="206" y2="250" stroke="#555555"/>
  <text x="58" y="286" fill="#EDEDED" font-family="Arial, sans-serif" font-size="18">Sales</text>
  <text x="25" y="286" fill="#EDEDED" font-family="Arial, sans-serif" font-size="20">$</text>
  <line x1="0" y1="308" x2="206" y2="308" stroke="#555555"/>
  <text x="58" y="344" fill="#EDEDED" font-family="Arial, sans-serif" font-size="18">Payouts</text>
  <text x="25" y="344" fill="#EDEDED" font-family="Arial, sans-serif" font-size="20">▦</text>
  <line x1="0" y1="366" x2="206" y2="366" stroke="#555555"/>
  <text x="58" y="402" fill="#EDEDED" font-family="Arial, sans-serif" font-size="18">Discover</text>
  <text x="25" y="402" fill="#EDEDED" font-family="Arial, sans-serif" font-size="20">⌕</text>
  <line x1="0" y1="424" x2="206" y2="424" stroke="#555555"/>
  <text x="58" y="474" fill="#EDEDED" font-family="Arial, sans-serif" font-size="18">Everything else</text>
  <text x="25" y="474" fill="#EDEDED" font-family="Arial, sans-serif" font-size="20">...</text>
  <line x1="0" y1="724" x2="206" y2="724" stroke="#555555"/>
  <text x="58" y="766" fill="#EDEDED" font-family="Arial, sans-serif" font-size="18">creator account</text>
  <circle cx="32" cy="758" r="15" fill="#0D74CE" stroke="#777777"/>
  <text x="27" y="764" fill="#FFFFFF" font-family="Arial, sans-serif" font-size="14">c</text>

  <rect x="238" y="56" width="988" height="220" rx="4" fill="#000000" stroke="#555555" stroke-dasharray="3 3"/>
  <rect x="264" y="56" width="936" height="78" fill="#24A69A"/>
  <rect x="264" y="134" width="936" height="78" fill="#FFC900"/>
  <text x="534" y="244" fill="#EDEDED" font-family="Arial, sans-serif" font-size="22">Freelance Client Portal Kit is live and taking orders.</text>
  <rect x="600" y="260" width="220" height="48" rx="6" fill="#FF7EE7"/>
  <text x="642" y="291" fill="#000000" font-family="Arial, sans-serif" font-size="18">View product</text>

  <text x="238" y="388" fill="#EDEDED" font-family="Arial, sans-serif" font-size="26">Activity</text>
  <rect x="238" y="432" width="224" height="142" rx="4" fill="#000000" stroke="#555555"/>
  <text x="272" y="484" fill="#EDEDED" font-family="Arial, sans-serif" font-size="18">Balance</text>
  <text x="272" y="538" fill="#EDEDED" font-family="Arial, sans-serif" font-size="42">$181</text>

  <rect x="486" y="432" width="224" height="142" rx="4" fill="#000000" stroke="#555555"/>
  <text x="520" y="484" fill="#EDEDED" font-family="Arial, sans-serif" font-size="18">Last 7 days</text>
  <text x="520" y="538" fill="#EDEDED" font-family="Arial, sans-serif" font-size="42">$203</text>

  <rect x="734" y="432" width="224" height="142" rx="4" fill="#000000" stroke="#555555"/>
  <text x="768" y="484" fill="#EDEDED" font-family="Arial, sans-serif" font-size="18">Last 28 days</text>
  <text x="768" y="538" fill="#EDEDED" font-family="Arial, sans-serif" font-size="42">$203</text>

  <rect x="982" y="432" width="224" height="142" rx="4" fill="#000000" stroke="#555555"/>
  <text x="1016" y="484" fill="#EDEDED" font-family="Arial, sans-serif" font-size="18">Total earnings</text>
  <text x="1016" y="538" fill="#EDEDED" font-family="Arial, sans-serif" font-size="42">$203</text>

  <rect x="238" y="604" width="988" height="132" rx="4" fill="#000000" stroke="#555555" stroke-dasharray="3 3"/>
  <text x="302" y="650" fill="#EDEDED" font-family="Arial, sans-serif" font-size="19">7 sales · 0 refunds · 7 files delivered · top source: TikTok bio</text>
  <text x="302" y="692" fill="#EDEDED" font-family="Arial, sans-serif" font-size="17">Recent: amy@studio.co $29 · marco@solo.dev $29 · jules@coach.ai $29</text>
</svg>
